<svg width="48" height="48" viewBox="0 0 48 48" fill="none" xmlns="http://www.w3.org/2000/svg">
<path fill-rule="evenodd" clip-rule="evenodd" d="M26 17C21.0294 17 17 21.0294 17 26C17 30.9706 21.0294 35 26 35C30.9706 35 35 30.9706 35 26C35 21.0294 30.9706 17 26 17ZM15 26C15 19.9249 19.9249 15 26 15C32.0751 15 37 19.9249 37 26C37 32.0751 32.0751 37 26 37C19.9249 37 15 32.0751 15 26Z" fill="black"/>
<path fill-rule="evenodd" clip-rule="evenodd" d="M27.8099 21.134C28.2882 20.8578 28.8998 21.0217 29.176 21.4999L34.916 31.4399C35.1922 31.9182 35.0283 32.5298 34.5501 32.806C34.0718 33.0822 33.4602 32.9183 33.184 32.4401L27.444 22.5001C27.1678 22.0218 27.3317 21.4102 27.8099 21.134Z" fill="black"/>
<path fill-rule="evenodd" clip-rule="evenodd" d="M22.69 22C22.69 21.4477 23.1377 21 23.69 21H35.17C35.7223 21 36.17 21.4477 36.17 22C36.17 22.5523 35.7223 23 35.17 23H23.69C23.1377 23 22.69 22.5523 22.69 22Z" fill="black"/>
<path fill-rule="evenodd" clip-rule="evenodd" d="M27.6201 15.194C28.0983 15.4702 28.2622 16.0818 27.986 16.5601L22.246 26.5001C21.9698 26.9783 21.3582 27.1422 20.8799 26.866C20.4017 26.5898 20.2378 25.9782 20.514 25.4999L26.254 15.5599C26.5302 15.0817 27.1418 14.9178 27.6201 15.194Z" fill="black"/>
<path fill-rule="evenodd" clip-rule="evenodd" d="M17.4499 19.194C17.9282 18.9178 18.5398 19.0817 18.816 19.5599L24.556 29.4999C24.8322 29.9782 24.6683 30.5898 24.1901 30.866C23.7118 31.1422 23.1002 30.9783 22.824 30.5001L17.084 20.5601C16.8078 20.0818 16.9717 19.4702 17.4499 19.194Z" fill="black"/>
<path fill-rule="evenodd" clip-rule="evenodd" d="M15.83 30C15.83 29.4477 16.2777 29 16.83 29H28.31C28.8623 29 29.31 29.4477 29.31 30C29.31 30.5523 28.8623 31 28.31 31H16.83C16.2777 31 15.83 30.5523 15.83 30Z" fill="black"/>
<path fill-rule="evenodd" clip-rule="evenodd" d="M31.1201 25.134C31.5983 25.4102 31.7622 26.0218 31.486 26.5001L25.746 36.4401C25.4698 36.9183 24.8582 37.0822 24.3799 36.806C23.9017 36.5298 23.7378 35.9182 24.014 35.4399L29.754 25.4999C30.0302 25.0217 30.6418 24.8578 31.1201 25.134Z" fill="black"/>
</svg>
