<svg width="48" height="48" viewBox="0 0 48 48" fill="none" xmlns="http://www.w3.org/2000/svg">
<path fill-rule="evenodd" clip-rule="evenodd" d="M18 18C17.7348 18 17.4804 18.1054 17.2929 18.2929C17.1054 18.4804 17 18.7348 17 19V29C17 29.2652 17.1054 29.5196 17.2929 29.7071C17.4804 29.8946 17.7348 30 18 30H19C19.5523 30 20 30.4477 20 31C20 31.5523 19.5523 32 19 32H18C17.2043 32 16.4413 31.6839 15.8787 31.1213C15.3161 30.5587 15 29.7956 15 29V19C15 18.2044 15.3161 17.4413 15.8787 16.8787C16.4413 16.3161 17.2044 16 18 16H34C34.7957 16 35.5587 16.3161 36.1213 16.8787C36.6839 17.4413 37 18.2043 37 19V29C37 29.7957 36.6839 30.5587 36.1213 31.1213C35.5587 31.6839 34.7957 32 34 32H33C32.4477 32 32 31.5523 32 31C32 30.4477 32.4477 30 33 30H34C34.2652 30 34.5196 29.8946 34.7071 29.7071C34.8946 29.5196 35 29.2652 35 29V19C35 18.7348 34.8946 18.4804 34.7071 18.2929C34.5196 18.1054 34.2652 18 34 18H18Z" fill="black"/>
<path fill-rule="evenodd" clip-rule="evenodd" d="M26 28C26.2968 28 26.5782 28.1318 26.7682 28.3598L31.7682 34.3598C32.0166 34.6579 32.0702 35.0728 31.9056 35.4242C31.741 35.7755 31.388 36 31 36H21C20.612 36 20.259 35.7755 20.0944 35.4242C19.9298 35.0728 19.9834 34.6579 20.2318 34.3598L25.2318 28.3598C25.4218 28.1318 25.7032 28 26 28ZM23.1351 34H28.865L26 30.562L23.1351 34Z" fill="black"/>
</svg>
