<svg width="98" height="65" viewBox="0 0 98 65" fill="none" xmlns="http://www.w3.org/2000/svg">
<rect width="98" height="65" fill="#333333"/>
<path fill-rule="evenodd" clip-rule="evenodd" d="M50.9433 28.0545C50.3109 27.5253 49.2315 27.2611 47.7047 27.2611H44.2609V37.8492H46.836V34.5308H47.9895C49.3895 34.5308 50.4162 34.2242 51.0695 33.6105C51.8054 32.923 52.1758 32.0075 52.1758 30.8647C52.1758 29.6795 51.7647 28.7426 50.9433 28.0545ZM47.9255 32.1349H46.836V29.6569H47.8148C49.0054 29.6569 49.6007 30.0724 49.6007 30.9033C49.6007 31.7236 49.0419 32.1343 47.9255 32.1343V32.1349ZM56.5822 27.2605H53.8971V37.8486H59.6945V35.4522H56.5822V27.2605ZM64.9554 27.2605L60.7374 37.8486H63.6283L64.1812 36.3093H67.8463L68.3519 37.8486H71.2752L67.0871 27.2605H64.9554ZM64.9236 34.1659L66.0299 30.5468L67.1188 34.1659H64.923H64.9236ZM72.6165 37.8486H75.3023V27.2605H72.6165V37.8486ZM85.7294 29.245C85.3902 28.7556 84.9546 28.3399 84.449 28.023C83.6383 27.5146 82.5321 27.2611 81.1315 27.2611H77.5932V37.8486H81.7322C83.2279 37.8486 84.4281 37.3623 85.3339 36.3885C86.2397 35.4153 86.692 34.1236 86.692 32.5147C86.692 31.2349 86.3708 30.145 85.7288 29.245H85.7294ZM81.4318 35.4516H80.2789V29.6575H81.448C82.2694 29.6575 82.9006 29.9135 83.3434 30.4236C83.7861 30.9337 84.0075 31.6575 84.0075 32.5944C84.0075 34.4992 83.1489 35.4516 81.4318 35.4516ZM22.4578 18.3711L13.7544 20.639L11.3558 29.3468L14.3557 32.4111L11.3074 35.4248L13.5647 44.1707L22.2305 46.5796L25.2794 43.5653L28.2792 46.6291L36.9826 44.3612L39.3806 35.6528L36.3813 32.5897L39.4297 29.576L37.1723 20.8295L28.5054 18.4205L25.4577 21.4342L22.4578 18.3711ZM17.1168 22.314L21.7016 21.1187L23.7065 23.1664L20.7826 26.0569L17.1168 22.314ZM27.1814 23.1938L29.2186 21.1801L33.7836 22.4491L30.058 26.1319L27.1814 23.1938ZM14.1026 28.6319L15.3656 24.0456L19.0302 27.7884L16.1069 30.6789L14.1026 28.6313V28.6319ZM31.7805 27.892L35.506 24.2081L36.6943 28.8152L34.6577 30.8295L31.7805 27.892ZM22.5057 27.8164L25.4295 24.9259L28.3056 27.864L25.3823 30.7545L22.5057 27.8164ZM17.8306 32.4385L20.7539 29.548L23.6317 32.4861L20.7072 35.3766L17.8306 32.4385ZM27.106 32.5141L30.0292 29.6236L32.9058 32.5617L29.982 35.4522L27.106 32.5141ZM14.0416 36.1849L16.0794 34.17L18.9554 37.1087L15.231 40.7909L14.0416 36.1849ZM22.4303 37.1361L25.3542 34.2456L28.2308 37.1837L25.3075 40.0742L22.4303 37.1361ZM31.7051 37.2123L34.6289 34.3218L36.6338 36.3689L35.3714 40.9552L31.7051 37.2123ZM16.9535 42.5516L20.6785 38.8677L23.5563 41.8058L21.5185 43.8207L16.9535 42.551V42.5516ZM27.0306 41.8338L29.9539 38.9433L33.619 42.6868L29.0349 43.8814L27.0306 41.8338Z" fill="white"/>
</svg>
