<svg width="33" height="32" viewBox="0 0 33 32" fill="none" xmlns="http://www.w3.org/2000/svg">
<path d="M31.0908 16C31.0908 24.2843 24.3751 31 16.0908 31C7.80655 31 1.09082 24.2843 1.09082 16C1.09082 7.71573 7.80655 1 16.0908 1C24.3751 1 31.0908 7.71573 31.0908 16Z" stroke="#2B2D3A" stroke-width="2"/>
<path fill-rule="evenodd" clip-rule="evenodd" d="M20.1919 9H10.9898C9.39168 9 8.09082 10.3 8.09082 11.8989V21.1011C8.09082 22.7 9.39168 24 10.9898 24H20.1919C21.79 24 23.0908 22.7 23.0908 21.1011V11.8989C23.0908 10.3 21.79 9 20.1919 9ZM21.0236 10.7295L21.3552 10.7277V13.2704L18.8205 13.2783L18.8117 10.7357L21.0236 10.7295ZM13.4504 14.9601C13.9301 14.2951 14.7098 13.8595 15.5908 13.8595C16.4719 13.8595 17.2515 14.2951 17.7313 14.9601C18.0444 15.394 18.2313 15.925 18.2313 16.5C18.2313 17.9552 17.0469 19.1396 15.5908 19.1396C14.1356 19.1396 12.9512 17.9552 12.9512 16.5C12.9512 15.925 13.1381 15.394 13.4504 14.9601ZM21.6295 21.1011C21.6295 21.8939 20.9848 22.5386 20.1919 22.5386H10.9898C10.1969 22.5386 9.55219 21.8939 9.55219 21.1011V14.9601H11.7923C11.5983 15.4364 11.4898 15.9558 11.4898 16.5C11.4898 18.7613 13.3295 20.6019 15.5908 20.6019C17.853 20.6019 19.6927 18.7613 19.6927 16.5C19.6927 15.9558 19.5825 15.4364 19.3902 14.9601H21.6295V21.1011Z" fill="#2B2D3A"/>
</svg>
