<svg width="17" height="16" viewBox="0 0 17 16" fill="none" xmlns="http://www.w3.org/2000/svg">
<circle cx="8.18262" cy="8" r="7.45833" stroke="#2B2D3A" stroke-width="1.08333"/>
<path fill-rule="evenodd" clip-rule="evenodd" d="M11.2991 6.02763C11.6169 5.82482 11.8608 5.50325 11.9753 5.12018C11.6777 5.30843 11.3488 5.44457 10.998 5.51827C10.718 5.19905 10.3179 5 9.87499 5C9.02537 5 8.33687 5.73469 8.33687 6.64073C8.33687 6.76936 8.34964 6.8947 8.37605 7.01441C7.09766 6.94587 5.96409 6.29333 5.20472 5.29998C5.07221 5.54315 4.99649 5.82482 4.99649 6.12527C4.99649 6.69424 5.26811 7.19656 5.68103 7.49137C5.42879 7.48292 5.19151 7.40828 4.98373 7.28622V7.30641C4.98373 8.10165 5.51375 8.76499 6.21854 8.91521C6.08911 8.95371 5.95353 8.97295 5.81266 8.97295C5.71361 8.97295 5.61676 8.96309 5.52343 8.94385C5.71889 9.59544 6.28721 10.0705 6.96075 10.0832C6.43381 10.5235 5.7704 10.7855 5.04976 10.7855C4.92562 10.7855 4.8028 10.7785 4.68262 10.763C5.36364 11.2282 6.17232 11.5 7.04131 11.5C9.87191 11.5 11.4188 8.99971 11.4188 6.83132C11.4188 6.75997 11.418 6.68908 11.4149 6.61913C11.7155 6.38769 11.977 6.09851 12.1826 5.76943C11.9066 5.89994 11.6099 5.98819 11.2991 6.02763Z" fill="#2B2D3A"/>
</svg>
