<svg width="17" height="16" viewBox="0 0 17 16" fill="none" xmlns="http://www.w3.org/2000/svg">
<path d="M15.5449 8C15.5449 12.1421 12.1871 15.5 8.04492 15.5C3.90279 15.5 0.544922 12.1421 0.544922 8C0.544922 3.85786 3.90279 0.5 8.04492 0.5C12.1871 0.5 15.5449 3.85786 15.5449 8Z" stroke="#2B2D3A"/>
<path fill-rule="evenodd" clip-rule="evenodd" d="M10.0955 4.5H5.49439C4.69535 4.5 4.04492 5.14999 4.04492 5.94947V10.5505C4.04492 11.35 4.69535 12 5.49439 12H10.0955C10.8945 12 11.5449 11.35 11.5449 10.5505V5.94947C11.5449 5.14999 10.8945 4.5 10.0955 4.5ZM10.5117 5.36477L10.6775 5.36389V6.63521L9.41017 6.63917L9.40576 5.36786L10.5117 5.36477ZM6.72517 7.48002C6.96506 7.14753 7.35488 6.92969 7.79541 6.92969C8.23593 6.92969 8.62575 7.14753 8.86564 7.48002C9.02218 7.69697 9.11567 7.96244 9.11567 8.24995C9.11567 8.97755 8.52345 9.56977 7.79541 9.56977C7.06781 9.56977 6.47559 8.97755 6.47559 8.24995C6.47559 7.96244 6.56907 7.69697 6.72517 7.48002ZM10.8145 10.5506C10.8145 10.947 10.4922 11.2693 10.0957 11.2693H5.49466C5.09823 11.2693 4.77588 10.947 4.77588 10.5506V7.4801H5.89594C5.79893 7.71823 5.74469 7.97796 5.74469 8.25003C5.74469 9.38068 6.66455 10.301 7.79519 10.301C8.92628 10.301 9.84614 9.38068 9.84614 8.25003C9.84614 7.97796 9.79102 7.71823 9.69489 7.4801H10.8145V10.5506Z" fill="#2B2D3A"/>
</svg>
