<svg width="33" height="32" viewBox="0 0 33 32" fill="none" xmlns="http://www.w3.org/2000/svg">
<circle cx="16.3633" cy="16" r="15" stroke="#2B2D3A" stroke-width="2"/>
<path fill-rule="evenodd" clip-rule="evenodd" d="M22.5962 12.0553C23.2319 11.6496 23.7197 11.0065 23.9486 10.2404C23.3534 10.6169 22.6957 10.8891 21.994 11.0365C21.4341 10.3981 20.6338 10 19.748 10C18.0488 10 16.6718 11.4694 16.6718 13.2815C16.6718 13.5387 16.6973 13.7894 16.7501 14.0288C14.1934 13.8917 11.9262 12.5867 10.4075 10.6C10.1425 11.0863 9.99103 11.6496 9.99103 12.2505C9.99103 13.3885 10.5343 14.3931 11.3601 14.9827C10.8556 14.9658 10.3811 14.8166 9.9655 14.5724V14.6128C9.9655 16.2033 11.0255 17.53 12.4351 17.8304C12.1763 17.9074 11.9051 17.9459 11.6234 17.9459C11.4253 17.9459 11.2316 17.9262 11.0449 17.8877C11.4358 19.1909 12.5725 20.1411 13.9195 20.1664C12.8657 21.0471 11.5388 21.571 10.0976 21.571C9.84928 21.571 9.60364 21.5569 9.36328 21.5259C10.7253 22.4564 12.3427 23 14.0807 23C19.7419 23 22.8357 17.9994 22.8357 13.6626C22.8357 13.5199 22.834 13.3782 22.8278 13.2383C23.4291 12.7754 23.9521 12.197 24.3633 11.5389C23.8112 11.7999 23.2178 11.9764 22.5962 12.0553Z" fill="#2B2D3A"/>
</svg>
