<?xml version="1.0" encoding="UTF-8"?>
<svg xmlns="http://www.w3.org/2000/svg" xmlns:xlink="http://www.w3.org/1999/xlink" width="171px" height="32px" viewBox="0 0 170 32" version="1.1">
<defs>
<filter id="alpha" filterUnits="objectBoundingBox" x="0%" y="0%" width="100%" height="100%">
  <feColorMatrix type="matrix" in="SourceGraphic" values="0 0 0 0 1 0 0 0 0 1 0 0 0 0 1 0 0 0 1 0"/>
</filter>
<mask id="mask0">
  <g filter="url(#alpha)">
<rect x="0" y="0" width="170" height="32" style="fill:rgb(0%,0%,0%);fill-opacity:0.980392;stroke:none;"/>
  </g>
</mask>
<clipPath id="clip1">
  <rect x="0" y="0" width="170" height="32"/>
</clipPath>
<g id="surface5" clip-path="url(#clip1)">
<path style=" stroke:none;fill-rule:evenodd;fill:rgb(99.607843%,76.470588%,22.352941%);fill-opacity:1;" d="M 13.660156 -0.046875 C 13.875 -0.046875 14.089844 -0.046875 14.304688 -0.046875 C 14.304688 1.617188 14.304688 3.285156 14.304688 4.949219 C 12.4375 5.25 10.765625 5.988281 9.292969 7.167969 C 9.230469 7.230469 9.230469 7.289062 9.292969 7.351562 C 9.996094 8.078125 10.71875 8.789062 11.453125 9.480469 C 13.828125 7.882812 16.371094 7.558594 19.089844 8.507812 C 20.664062 9.148438 21.921875 10.179688 22.859375 11.605469 C 23.78125 11.113281 24.699219 10.621094 25.621094 10.128906 C 23.765625 7.230469 21.144531 5.472656 17.753906 4.855469 C 17.707031 3.222656 17.691406 1.589844 17.707031 -0.046875 C 17.921875 -0.046875 18.136719 -0.046875 18.351562 -0.046875 C 25.519531 1.375 29.980469 5.664062 31.738281 12.808594 C 32.75 19.277344 30.773438 24.59375 25.804688 28.761719 C 23.574219 30.429688 21.089844 31.492188 18.351562 31.953125 C 18.136719 31.953125 17.921875 31.953125 17.707031 31.953125 C 17.691406 30.320312 17.707031 28.6875 17.753906 27.050781 C 21.144531 26.4375 23.765625 24.679688 25.621094 21.78125 C 24.699219 21.289062 23.78125 20.792969 22.859375 20.300781 C 20.769531 23.214844 17.949219 24.371094 14.398438 23.769531 C 13.328125 23.535156 12.363281 23.085938 11.5 22.429688 C 10.746094 23.183594 9.996094 23.9375 9.246094 24.695312 C 10.726562 25.898438 12.410156 26.65625 14.304688 26.960938 C 14.304688 28.625 14.304688 30.289062 14.304688 31.953125 C 14.089844 31.953125 13.875 31.953125 13.660156 31.953125 C 7.917969 30.90625 3.792969 27.734375 1.289062 22.429688 C 0.582031 20.691406 0.136719 18.90625 -0.046875 17.0625 C -0.046875 16.324219 -0.046875 15.582031 -0.046875 14.84375 C 0.722656 8.007812 4.28125 3.304688 10.625 0.738281 C 11.628906 0.402344 12.640625 0.140625 13.660156 -0.046875 Z M 7.40625 9.015625 C 8.183594 9.753906 8.949219 10.507812 9.707031 11.285156 C 8.265625 13.347656 7.851562 15.613281 8.464844 18.082031 C 8.707031 19.03125 9.121094 19.894531 9.707031 20.671875 C 9 21.441406 8.265625 22.179688 7.496094 22.890625 C 4.941406 19.546875 4.371094 15.878906 5.796875 11.882812 C 6.238281 10.871094 6.773438 9.914062 7.40625 9.015625 Z M 16.050781 10.128906 C 19.597656 10.453125 21.558594 12.394531 21.941406 15.953125 C 21.570312 19.46875 19.640625 21.410156 16.144531 21.78125 C 12.648438 21.410156 10.71875 19.46875 10.347656 15.953125 C 10.714844 12.472656 12.617188 10.53125 16.050781 10.128906 Z M 16.050781 10.128906 "/>
</g>
<mask id="mask1">
  <g filter="url(#alpha)">
<rect x="0" y="0" width="170" height="32" style="fill:rgb(0%,0%,0%);fill-opacity:0.94902;stroke:none;"/>
  </g>
</mask>
<clipPath id="clip2">
  <rect x="0" y="0" width="170" height="32"/>
</clipPath>
<g id="surface8" clip-path="url(#clip2)">
<path style=" stroke:none;fill-rule:evenodd;fill:rgb(12.54902%,12.941176%,14.901961%);fill-opacity:1;" d="M 45.582031 8.183594 C 48.765625 7.867188 51.265625 9.007812 53.078125 11.605469 C 53.339844 12.058594 53.542969 12.535156 53.675781 13.039062 C 53.664062 13.113281 53.632812 13.171875 53.585938 13.226562 C 53.039062 13.378906 52.503906 13.546875 51.976562 13.734375 C 50.847656 10.878906 48.746094 9.628906 45.671875 9.988281 C 42.5625 10.738281 40.90625 12.726562 40.707031 15.953125 C 40.808594 18.539062 42.003906 20.402344 44.292969 21.550781 C 46.527344 22.359375 48.578125 22.050781 50.457031 20.625 C 51.152344 19.921875 51.671875 19.105469 52.019531 18.171875 C 52.566406 18.332031 53.117188 18.457031 53.675781 18.542969 C 52.929688 21.3125 51.152344 22.992188 48.339844 23.582031 C 44.066406 24.214844 41.042969 22.566406 39.28125 18.636719 C 38.242188 15.019531 39.144531 12.015625 41.992188 9.617188 C 43.082031 8.839844 44.277344 8.359375 45.582031 8.183594 Z M 45.582031 8.183594 "/>
</g>
<mask id="mask2">
  <g filter="url(#alpha)">
<rect x="0" y="0" width="170" height="32" style="fill:rgb(0%,0%,0%);fill-opacity:0.94902;stroke:none;"/>
  </g>
</mask>
<clipPath id="clip3">
  <rect x="0" y="0" width="170" height="32"/>
</clipPath>
<g id="surface11" clip-path="url(#clip3)">
<path style=" stroke:none;fill-rule:evenodd;fill:rgb(12.54902%,12.941176%,14.901961%);fill-opacity:1;" d="M 98.199219 8.460938 C 98.8125 8.460938 99.425781 8.460938 100.039062 8.460938 C 100.039062 9.789062 100.039062 11.113281 100.039062 12.4375 C 101.328125 12.4375 102.617188 12.4375 103.902344 12.4375 C 103.902344 12.933594 103.902344 13.425781 103.902344 13.917969 C 102.617188 13.917969 101.328125 13.917969 100.039062 13.917969 C 100.023438 16.109375 100.039062 18.296875 100.085938 20.484375 C 100.589844 21.917969 101.554688 22.363281 102.984375 21.828125 C 103.261719 21.6875 103.535156 21.550781 103.8125 21.410156 C 104.078125 21.839844 104.292969 22.300781 104.457031 22.796875 C 103.308594 23.703125 102.023438 23.964844 100.59375 23.582031 C 99.082031 23.0625 98.300781 22 98.246094 20.394531 C 98.199219 18.234375 98.183594 16.078125 98.199219 13.917969 C 97.433594 13.917969 96.667969 13.917969 95.902344 13.917969 C 95.902344 13.425781 95.902344 12.933594 95.902344 12.4375 C 96.667969 12.4375 97.433594 12.4375 98.199219 12.4375 C 98.199219 11.113281 98.199219 9.789062 98.199219 8.460938 Z M 98.199219 8.460938 "/>
</g>
<mask id="mask3">
  <g filter="url(#alpha)">
<rect x="0" y="0" width="170" height="32" style="fill:rgb(0%,0%,0%);fill-opacity:0.980392;stroke:none;"/>
  </g>
</mask>
<clipPath id="clip4">
  <rect x="0" y="0" width="170" height="32"/>
</clipPath>
<g id="surface14" clip-path="url(#clip4)">
<path style=" stroke:none;fill-rule:evenodd;fill:rgb(12.54902%,12.941176%,14.901961%);fill-opacity:1;" d="M 126.808594 8.460938 C 131.132812 8.460938 135.457031 8.460938 139.78125 8.460938 C 139.78125 9.417969 139.78125 10.375 139.78125 11.328125 C 138.125 11.328125 136.46875 11.328125 134.8125 11.328125 C 134.8125 15.367188 134.8125 19.40625 134.8125 23.445312 C 133.800781 23.445312 132.789062 23.445312 131.777344 23.445312 C 131.777344 19.40625 131.777344 15.367188 131.777344 11.328125 C 130.121094 11.328125 128.464844 11.328125 126.808594 11.328125 C 126.808594 10.375 126.808594 9.417969 126.808594 8.460938 Z M 126.808594 8.460938 "/>
</g>
<mask id="mask4">
  <g filter="url(#alpha)">
<rect x="0" y="0" width="170" height="32" style="fill:rgb(0%,0%,0%);fill-opacity:0.968627;stroke:none;"/>
  </g>
</mask>
<clipPath id="clip5">
  <rect x="0" y="0" width="170" height="32"/>
</clipPath>
<g id="surface17" clip-path="url(#clip5)">
<path style=" stroke:none;fill-rule:evenodd;fill:rgb(12.54902%,12.941176%,14.901961%);fill-opacity:1;" d="M 141.898438 8.460938 C 145.667969 8.460938 149.441406 8.460938 153.210938 8.460938 C 153.210938 9.417969 153.210938 10.375 153.210938 11.328125 C 150.480469 11.328125 147.753906 11.328125 145.023438 11.328125 C 145.023438 12.410156 145.023438 13.488281 145.023438 14.566406 C 147.539062 14.566406 150.054688 14.566406 152.566406 14.566406 C 152.566406 15.492188 152.566406 16.417969 152.566406 17.339844 C 150.054688 17.339844 147.539062 17.339844 145.023438 17.339844 C 145.023438 18.421875 145.023438 19.5 145.023438 20.578125 C 147.753906 20.578125 150.480469 20.578125 153.210938 20.578125 C 153.210938 21.535156 153.210938 22.488281 153.210938 23.445312 C 149.441406 23.445312 145.667969 23.445312 141.898438 23.445312 C 141.898438 18.449219 141.898438 13.457031 141.898438 8.460938 Z M 141.898438 8.460938 "/>
</g>
<mask id="mask5">
  <g filter="url(#alpha)">
<rect x="0" y="0" width="170" height="32" style="fill:rgb(0%,0%,0%);fill-opacity:0.980392;stroke:none;"/>
  </g>
</mask>
<clipPath id="clip6">
  <rect x="0" y="0" width="170" height="32"/>
</clipPath>
<g id="surface20" clip-path="url(#clip6)">
<path style=" stroke:none;fill-rule:evenodd;fill:rgb(12.54902%,12.941176%,14.901961%);fill-opacity:1;" d="M 169.953125 8.460938 C 169.953125 13.457031 169.953125 18.449219 169.953125 23.445312 C 169.0625 23.460938 168.175781 23.445312 167.285156 23.398438 C 164.601562 20.269531 161.921875 17.140625 159.238281 14.011719 C 159.191406 17.15625 159.175781 20.300781 159.191406 23.445312 C 158.179688 23.445312 157.167969 23.445312 156.15625 23.445312 C 156.15625 18.449219 156.15625 13.457031 156.15625 8.460938 C 157.015625 8.445312 157.871094 8.460938 158.730469 8.507812 C 161.414062 11.699219 164.097656 14.890625 166.78125 18.082031 C 166.828125 14.875 166.84375 11.667969 166.828125 8.460938 C 167.867188 8.460938 168.910156 8.460938 169.953125 8.460938 Z M 169.953125 8.460938 "/>
</g>
<mask id="mask6">
  <g filter="url(#alpha)">
<rect x="0" y="0" width="170" height="32" style="fill:rgb(0%,0%,0%);fill-opacity:0.94902;stroke:none;"/>
  </g>
</mask>
<clipPath id="clip7">
  <rect x="0" y="0" width="170" height="32"/>
</clipPath>
<g id="surface23" clip-path="url(#clip7)">
<path style=" stroke:none;fill-rule:evenodd;fill:rgb(12.54902%,12.941176%,14.901961%);fill-opacity:1;" d="M 60.667969 12.160156 C 63.015625 11.894531 64.929688 12.664062 66.417969 14.472656 C 67.867188 16.890625 67.804688 19.265625 66.234375 21.59375 C 64.488281 23.496094 62.355469 24.128906 59.839844 23.492188 C 56.859375 22.355469 55.527344 20.183594 55.839844 16.972656 C 56.402344 14.292969 58.011719 12.6875 60.667969 12.160156 Z M 61.035156 13.734375 C 63.835938 13.710938 65.398438 15.097656 65.726562 17.894531 C 65.523438 20.476562 64.144531 21.894531 61.589844 22.148438 C 59.449219 21.957031 58.117188 20.816406 57.585938 18.726562 C 57.320312 16.054688 58.472656 14.390625 61.035156 13.734375 Z M 61.035156 13.734375 "/>
</g>
<mask id="mask7">
  <g filter="url(#alpha)">
<rect x="0" y="0" width="170" height="32" style="fill:rgb(0%,0%,0%);fill-opacity:0.964706;stroke:none;"/>
  </g>
</mask>
<clipPath id="clip8">
  <rect x="0" y="0" width="170" height="32"/>
</clipPath>
<g id="surface26" clip-path="url(#clip8)">
<path style=" stroke:none;fill-rule:evenodd;fill:rgb(12.54902%,12.941176%,14.901961%);fill-opacity:1;" d="M 88.816406 12.160156 C 91.695312 11.773438 93.488281 12.976562 94.199219 15.769531 C 94.246094 18.328125 94.261719 20.886719 94.246094 23.445312 C 93.664062 23.445312 93.078125 23.445312 92.496094 23.445312 C 92.539062 20.972656 92.492188 18.507812 92.359375 16.046875 C 91.65625 14.070312 90.289062 13.378906 88.265625 13.964844 C 86.742188 14.609375 85.929688 15.761719 85.828125 17.433594 C 85.78125 19.4375 85.765625 21.441406 85.78125 23.445312 C 85.199219 23.445312 84.617188 23.445312 84.035156 23.445312 C 84.035156 19.777344 84.035156 16.109375 84.035156 12.4375 C 84.617188 12.4375 85.199219 12.4375 85.78125 12.4375 C 85.765625 12.964844 85.78125 13.488281 85.828125 14.011719 C 86.605469 13.027344 87.601562 12.410156 88.816406 12.160156 Z M 88.816406 12.160156 "/>
</g>
<mask id="mask8">
  <g filter="url(#alpha)">
<rect x="0" y="0" width="170" height="32" style="fill:rgb(0%,0%,0%);fill-opacity:0.956863;stroke:none;"/>
  </g>
</mask>
<clipPath id="clip9">
  <rect x="0" y="0" width="170" height="32"/>
</clipPath>
<g id="surface29" clip-path="url(#clip9)">
<path style=" stroke:none;fill-rule:evenodd;fill:rgb(12.54902%,12.941176%,14.901961%);fill-opacity:1;" d="M 109.882812 12.160156 C 114.066406 12.015625 116.210938 14.050781 116.324219 18.265625 C 113.195312 18.265625 110.066406 18.265625 106.941406 18.265625 C 107.074219 20.144531 108.027344 21.394531 109.792969 22.011719 C 111.847656 22.449219 113.378906 21.753906 114.390625 19.929688 C 114.960938 19.871094 115.511719 19.964844 116.046875 20.207031 C 114.875 22.894531 112.820312 24.050781 109.882812 23.675781 C 106.523438 22.824219 104.972656 20.652344 105.238281 17.15625 C 105.699219 14.460938 107.246094 12.792969 109.882812 12.160156 Z M 110.160156 13.734375 C 112.480469 13.570312 113.921875 14.621094 114.484375 16.878906 C 112 16.972656 109.515625 17 107.03125 16.972656 C 107.390625 15.222656 108.433594 14.144531 110.160156 13.734375 Z M 110.160156 13.734375 "/>
</g>
<mask id="mask9">
  <g filter="url(#alpha)">
<rect x="0" y="0" width="170" height="32" style="fill:rgb(0%,0%,0%);fill-opacity:0.941176;stroke:none;"/>
  </g>
</mask>
<clipPath id="clip10">
  <rect x="0" y="0" width="170" height="32"/>
</clipPath>
<g id="surface32" clip-path="url(#clip10)">
<path style=" stroke:none;fill-rule:evenodd;fill:rgb(12.54902%,12.941176%,14.901961%);fill-opacity:1;" d="M 124.695312 12.253906 C 125.167969 12.226562 125.628906 12.285156 126.074219 12.4375 C 125.992188 12.992188 125.929688 13.546875 125.890625 14.105469 C 123.078125 13.894531 121.4375 15.191406 120.96875 17.988281 C 120.921875 19.808594 120.90625 21.625 120.921875 23.445312 C 120.308594 23.445312 119.695312 23.445312 119.082031 23.445312 C 119.082031 19.777344 119.082031 16.109375 119.082031 12.4375 C 119.695312 12.4375 120.308594 12.4375 120.921875 12.4375 C 120.90625 13.210938 120.921875 13.980469 120.96875 14.75 C 121.824219 13.328125 123.066406 12.496094 124.695312 12.253906 Z M 124.695312 12.253906 "/>
</g>
<mask id="mask10">
  <g filter="url(#alpha)">
<rect x="0" y="0" width="170" height="32" style="fill:rgb(0%,0%,0%);fill-opacity:0.956863;stroke:none;"/>
  </g>
</mask>
<clipPath id="clip11">
  <rect x="0" y="0" width="170" height="32"/>
</clipPath>
<g id="surface35" clip-path="url(#clip11)">
<path style=" stroke:none;fill-rule:evenodd;fill:rgb(12.54902%,12.941176%,14.901961%);fill-opacity:1;" d="M 69.960938 12.4375 C 70.542969 12.4375 71.125 12.4375 71.707031 12.4375 C 71.691406 14.535156 71.707031 16.632812 71.753906 18.726562 C 71.925781 21.277344 73.257812 22.339844 75.753906 21.917969 C 77.296875 21.417969 78.171875 20.351562 78.375 18.726562 C 78.421875 16.632812 78.4375 14.535156 78.421875 12.4375 C 79.035156 12.4375 79.648438 12.4375 80.261719 12.4375 C 80.261719 16.109375 80.261719 19.777344 80.261719 23.445312 C 79.648438 23.445312 79.035156 23.445312 78.421875 23.445312 C 78.4375 22.921875 78.421875 22.394531 78.375 21.871094 C 77.371094 23.132812 76.050781 23.75 74.421875 23.722656 C 71.921875 23.613281 70.449219 22.316406 70.003906 19.839844 C 69.960938 17.371094 69.945312 14.90625 69.960938 12.4375 Z M 69.960938 12.4375 "/>
</g>
<mask id="mask11">
  <g filter="url(#alpha)">
<rect x="0" y="0" width="170" height="32" style="fill:rgb(0%,0%,0%);fill-opacity:0.968627;stroke:none;"/>
  </g>
</mask>
<clipPath id="clip12">
  <rect x="0" y="0" width="170" height="32"/>
</clipPath>
<g id="surface38" clip-path="url(#clip12)">
<path style=" stroke:none;fill-rule:evenodd;fill:rgb(99.607843%,76.470588%,22.352941%);fill-opacity:1;" d="M 15.683594 12.808594 C 17.597656 12.746094 18.777344 13.640625 19.226562 15.492188 C 19.371094 16.789062 18.925781 17.820312 17.890625 18.589844 C 16.195312 19.457031 14.738281 19.164062 13.523438 17.710938 C 12.640625 16 12.933594 14.539062 14.398438 13.316406 C 14.8125 13.082031 15.242188 12.910156 15.683594 12.808594 Z M 15.683594 12.808594 "/>
</g>
</defs>
<g id="surface1">
<use xlink:href="#surface5" mask="url(#mask0)"/>
<use xlink:href="#surface8" mask="url(#mask1)"/>
<use xlink:href="#surface11" mask="url(#mask2)"/>
<use xlink:href="#surface14" mask="url(#mask3)"/>
<use xlink:href="#surface17" mask="url(#mask4)"/>
<use xlink:href="#surface20" mask="url(#mask5)"/>
<use xlink:href="#surface23" mask="url(#mask6)"/>
<use xlink:href="#surface26" mask="url(#mask7)"/>
<use xlink:href="#surface29" mask="url(#mask8)"/>
<use xlink:href="#surface32" mask="url(#mask9)"/>
<use xlink:href="#surface35" mask="url(#mask10)"/>
<use xlink:href="#surface38" mask="url(#mask11)"/>
</g>
</svg>
